#!OML:ASF G:\ViconDB\ViconDB\414\test\team2\shane.ASF
:FULLY-SPECIFIED
:DEGREES
173
root 4.15507 15.7184 25.2058 -12.1236 4.75177 -7.01318
lowerback 10.4136 -0.825456 3.2507
upperback 4.49964 -0.676239 4.80108
thorax -1.12712 -0.338345 3.23366
lowerneck -13.6438 -5.47472 -10.8022
upperneck 19.959 -6.35437 5.57491
head 9.04862 -3.22915 2.92202
rclavicle -3.08116e-015 2.70347e-014
rhumerus -38.756 14.372 -87.64
rradius 79.2283
rwrist 34.2763
rhand -53.2273 -37.0475
rfingers 7.12502
rthumb -25.6835 -65.3348
lclavicle -3.08116e-015 2.70347e-014
lhumerus -45.5406 -22.0871 99.7375
lradius 49.3121
lwrist -28.1481
lhand -53.7059 8.59507
lfingers 7.12502
lthumb -26.1417 36.8154
rfemur -10.0288 -22.5417 26.2625
rtibia 53.7694
rfoot -28.272 3.45125
rtoes -3.93777
lfemur 0.264437 -0.474851 2.83682
ltibia 86.6813
lfoot -12.6018 -13.2029
ltoes -6.52524
174
root 4.14469 15.7302 25.6088 -12.4319 4.12602 -6.63761
lowerback 10.6453 -0.428823 3.08157
upperback 4.74134 -0.168227 4.66718
thorax -1.01914 -0.0846153 3.13277
lowerneck -13.572 -5.55036 -10.8235
upperneck 19.8522 -6.47505 5.65023
head 9.01281 -3.27926 2.93655
rclavicle -3.38182e-014 4.77083e-015
rhumerus -35.2458 12.8891 -88.2916
rradius 80.2225
rwrist 34.6449
rhand -53.5514 -37.8092
rfingers 7.12502
rthumb -25.9938 -66.0514
lclavicle -3.38182e-014 4.77083e-015
lhumerus -47.7488 -23.1168 99.4006
lradius 49.7291
lwrist -26.5101
lhand -53.5493 6.88719
lfingers 7.12502
lthumb -25.9919 35.1296
rfemur -7.41263 -21.7199 25.5225
rtibia 52.9894
rfoot -29.5308 3.06147
rtoes -3.84692
lfemur -2.16999 0.513892 2.19878
ltibia 87.4206
lfoot -13.4846 -12.7693
ltoes -6.13191
175
root 4.13701 15.7519 26.0131 -12.7783 3.53129 -6.24201
lowerback 11.0713 -0.0185625 3.08092
upperback 4.86091 0.390494 4.43419
thorax -1.14394 0.196505 2.82663
lowerneck -13.7734 -5.47756 -9.79941
upperneck 20.0315 -6.38801 4.7407
head 9.03523 -3.25277 2.46425
rclavicle -1.49834e-014 -5.80451e-014
rhumerus -32.66 11.6169 -89.3639
rradius 82.1106
rwrist 35.0184
rhand -53.9274 -39.2093
rfingers 7.12502
rthumb -26.3538 -67.3981
lclavicle -1.49834e-014 -5.80451e-014
lhumerus -50.3162 -24.2794 99.1841
lradius 50.1041
lwrist -26.0114
lhand -53.6086 6.74891
lfingers 7.12502
lthumb -26.0486 34.983
rfemur -4.51185 -20.8173 24.814
rtibia 51.7325
rfoot -30.646 2.39416
rtoes -4.17533
lfemur -4.4184 1.66715 1.46735
ltibia 87.6471
lfoot -14.5908 -12.0405
ltoes -6.39373
176
root 4.12968 15.7788 26.4101 -12.8684 3.3244 -6.17754
lowerback 11.4462 0.314646 3.33503
upperback 4.70338 0.886937 4.27198
thorax -1.51952 0.446496 2.45236
lowerneck -13.451 -5.64703 -9.41484
upperneck 20.1186 -6.68711 4.4726
head 9.00557 -3.39669 2.27796
rclavicle 1.28216e-014 2.22639e-014
rhumerus -30.9827 10.8912 -90.5765
rradius 84.8289
rwrist 34.6581
rhand -54.3279 -40.5942
rfingers 7.12502
rthumb -26.7372 -68.7251
lclavicle 1.28216e-014 2.22639e-014
lhumerus -53.4041 -25.9134 99.4864
lradius 51.1295
lwrist -23.9911
lhand -53.2125 6.6318
lfingers 7.12502
lthumb -25.6693 34.9212
rfemur -1.88254 -20.1586 24.6237
rtibia 50.198
rfoot -31.412 1.24928
rtoes -4.95879
lfemur -7.13202 2.5186 0.868811
ltibia 87.4554
lfoot -15.5827 -11.012
ltoes -6.91498
177
root 4.12468 15.8264 26.8269 -12.9872 2.94871 -6.38295
lowerback 11.398 0.684443 3.79478
upperback 4.68808 1.42338 4.26205
thorax -1.50678 0.719228 2.11669
lowerneck -13.1947 -5.89558 -9.47747
upperneck 20.1811 -7.06762 4.56742
head 9.01533 -3.57376 2.27708
rclavicle -2.35063e-014 -2.74323e-014
rhumerus -29.2275 10.4928 -91.5218
rradius 86.9183
rwrist 35.8788
rhand -54.2083 -43.3944
rfingers 7.12502
rthumb -26.6227 -71.5427
lclavicle -2.35063e-014 -2.74323e-014
lhumerus -56.2493 -27.3982 99.8967
lradius 51.9287
lwrist -22.6907
lhand -53.0618 7.35071
lfingers 7.12502
lthumb -25.5249 35.6609
rfemur 0.849379 -18.9415 24.913
rtibia 48.3624
rfoot -31.6392 0.141978
rtoes -6.0499
lfemur -9.4621 3.32872 0.439723
ltibia 86.7021
lfoot -16.3359 -9.97759
ltoes -6.51059
178
root 4.12513 15.8816 27.2429 -12.8944 2.2865 -6.64044
lowerback 11.3351 1.14735 4.44134
upperback 4.48981 2.10784 4.12063
thorax -1.65574 1.06435 1.52059
lowerneck -12.9063 -6.10528 -9.00288
upperneck 20.3568 -7.48053 4.47792
head 9.02974 -3.74554 2.12339
rclavicle -5.25537e-014 -4.25399e-014
rhumerus -27.9365 10.0344 -92.6035
rradius 89.2997
rwrist 36.2271
rhand -54.2836 -42.0929
rfingers 7.12502
rthumb -26.6948 -70.2301
lclavicle -5.25537e-014 -4.25399e-014
lhumerus -59.5778 -29.0762 100.454
lradius 53.161
lwrist -20.531
lhand -52.9131 7.27243
lfingers 7.12502
lthumb -25.3825 35.6029
rfemur 3.34723 -17.5472 25.414
rtibia 46.4051
rfoot -31.3639 -0.940016
rtoes -7.2552
lfemur -11.7606 4.32142 -0.00924823
ltibia 85.5158
lfoot -17.096 -9.31549
ltoes -6.36823
179
root 4.1305 15.9446 27.6606 -12.8448 1.85004 -6.95219
lowerback 11.2537 1.52774 5.2652
upperback 4.30616 2.69813 3.93532
thorax -1.75022 1.36243 0.795046
lowerneck -12.7495 -6.5728 -9.38733
upperneck 20.6485 -8.23989 5.19052
head 9.20734 -4.06004 2.33315
rclavicle -1.08648e-014 -2.78299e-014
rhumerus -26.9711 10.3511 -93.5384
rradius 91.8527
rwrist 36.987
rhand -54.1316 -43.9383
rfingers 7.12502
rthumb -26.5493 -72.0977
lclavicle -1.08648e-014 -2.78299e-014
lhumerus -62.4434 -30.1959 100.539
lradius 54.1277
lwrist -20.1083
lhand -52.7962 7.43166
lfingers 7.12502
lthumb -25.2705 35.778
rfemur 5.93193 -16.6491 25.8006
rtibia 44.3188
rfoot -30.5239 -1.89954
rtoes -10.2047
lfemur -13.9315 4.96287 -0.62183
ltibia 83.828
lfoot -17.7249 -8.51588
ltoes -5.62458
